<svg width="24" height="24" viewBox="0 0 24 24" fill="none" xmlns="http://www.w3.org/2000/svg">
<path d="M10.4999 3.72998C10.6774 3.51617 10.8975 3.34169 11.1461 3.21766C11.3948 3.09362 11.6665 3.02276 11.9441 3.00959C12.2216 2.99642 12.4989 3.04122 12.7582 3.14115C13.0174 3.24108 13.253 3.39394 13.4499 3.58998C13.8109 3.96979 14.0084 4.47608 13.9999 4.99998V8.40998C13.9999 8.67519 14.1053 8.92955 14.2928 9.11708C14.4804 9.30462 14.7347 9.40998 14.9999 9.40998C15.2652 9.40998 15.5195 9.30462 15.7071 9.11708C15.8946 8.92955 15.9999 8.67519 15.9999 8.40998V4.99998C15.9771 4.19732 15.7132 3.42013 15.2425 2.76951C14.7719 2.1189 14.1164 1.625 13.3612 1.35205C12.606 1.07911 11.7862 1.03978 11.0084 1.23916C10.2305 1.43854 9.5307 1.86742 8.99995 2.46998C8.88355 2.56205 8.7891 2.67889 8.72346 2.812C8.65783 2.94511 8.62264 3.09116 8.62046 3.23956C8.61827 3.38796 8.64915 3.53498 8.71085 3.66997C8.77254 3.80495 8.86351 3.92451 8.97716 4.01997C9.0908 4.11543 9.22426 4.18439 9.36787 4.22187C9.51148 4.25934 9.66163 4.26437 9.80742 4.23661C9.95322 4.20885 10.091 4.14898 10.2108 4.06135C10.3306 3.97372 10.4293 3.86052 10.4999 3.72998ZM18.7199 13.27H18.9199C19.1553 13.2743 19.3846 13.1954 19.5676 13.0472C19.7505 12.899 19.8753 12.6911 19.9199 12.46C19.9916 11.9768 20.0184 11.4881 19.9999 11C19.9999 10.7348 19.8946 10.4804 19.7071 10.2929C19.5195 10.1053 19.2652 9.99998 18.9999 9.99998C18.7347 9.99998 18.4804 10.1053 18.2928 10.2929C18.1053 10.4804 17.9999 10.7348 17.9999 11C18 11.3694 17.9632 11.7379 17.8899 12.1C17.8656 12.2315 17.8679 12.3666 17.8967 12.4972C17.9256 12.6278 17.9803 12.7513 18.0577 12.8604C18.1351 12.9695 18.2335 13.062 18.3473 13.1323C18.4611 13.2027 18.5878 13.2495 18.7199 13.27ZM21.7199 19.33L3.71995 1.32998C3.62699 1.23625 3.51638 1.16186 3.39452 1.11109C3.27267 1.06032 3.14196 1.03418 3.00995 1.03418C2.87794 1.03418 2.74723 1.06032 2.62537 1.11109C2.50351 1.16186 2.39291 1.23625 2.29995 1.32998C2.1137 1.51734 2.00916 1.77079 2.00916 2.03498C2.00916 2.29916 2.1137 2.55262 2.29995 2.73998L7.99995 8.47998V11C8.00067 11.7018 8.18602 12.391 8.53738 12.9985C8.88875 13.606 9.39377 14.1104 10.0017 14.461C10.6097 14.8116 11.2992 14.9961 12.001 14.9959C12.7028 14.9957 13.3922 14.8109 13.9999 14.46L15.4599 15.92C14.5604 16.555 13.5034 16.9301 12.4048 17.0044C11.3062 17.0787 10.2083 16.8493 9.23145 16.3412C8.25456 15.8332 7.43632 15.0661 6.86634 14.124C6.29636 13.1819 5.99662 12.1011 5.99995 11C5.99995 10.7348 5.89459 10.4804 5.70705 10.2929C5.51952 10.1053 5.26516 9.99998 4.99995 9.99998C4.73473 9.99998 4.48038 10.1053 4.29284 10.2929C4.1053 10.4804 3.99995 10.7348 3.99995 11C4.00171 12.9473 4.71367 14.8271 6.00235 16.2869C7.29102 17.7468 9.06793 18.6866 10.9999 18.93V21H8.99995C8.73473 21 8.48038 21.1053 8.29284 21.2929C8.10531 21.4804 7.99995 21.7348 7.99995 22C7.99995 22.2652 8.10531 22.5195 8.29284 22.7071C8.48038 22.8946 8.73473 23 8.99995 23H14.9999C15.2652 23 15.5195 22.8946 15.7071 22.7071C15.8946 22.5195 15.9999 22.2652 15.9999 22C15.9999 21.7348 15.8946 21.4804 15.7071 21.2929C15.5195 21.1053 15.2652 21 14.9999 21H12.9999V18.93C14.4028 18.7554 15.7327 18.2061 16.8499 17.34L20.2499 20.74C20.4369 20.9283 20.691 21.0346 20.9564 21.0355C21.2218 21.0365 21.4766 20.932 21.6649 20.745C21.8533 20.558 21.9596 20.3039 21.9605 20.0385C21.9614 19.7731 21.8569 19.5183 21.6699 19.33H21.7199ZM11.9999 13C11.4695 13 10.9608 12.7893 10.5857 12.4142C10.2107 12.0391 9.99995 11.5304 9.99995 11V10.48L12.4499 12.94C12.3032 12.9795 12.1519 12.9997 11.9999 13Z" fill="hsl(0 80% 63%)"/>
</svg>
